<?xml version="1.0" standalone="no"?><!DOCTYPE svg PUBLIC "-//W3C//DTD SVG 1.1//EN" "http://www.w3.org/Graphics/SVG/1.1/DTD/svg11.dtd"><svg t="1608189507662" class="icon" viewBox="0 0 1024 1024" version="1.1" xmlns="http://www.w3.org/2000/svg" p-id="2643" xmlns:xlink="http://www.w3.org/1999/xlink" width="200" height="200"><defs><style type="text/css"></style></defs><path d="M561.548387 458.322581h144.516129a49.548387 49.548387 0 0 1 0 99.096774H561.548387v144.516129a49.548387 49.548387 0 0 1-99.096774 0v-144.516129h-144.516129a49.548387 49.548387 0 0 1 0-99.096774H462.451613V313.806452a49.548387 49.548387 0 0 1 99.096774 0v144.516129zM79.987613 786.894452a49.548387 49.548387 0 1 1 83.571613-53.264517C238.922323 851.885419 369.168516 924.903226 512 924.903226c228.038194 0 412.903226-184.865032 412.903226-412.903226S740.038194 99.096774 512 99.096774 99.096774 283.961806 99.096774 512a49.548387 49.548387 0 0 1-99.096774 0C0 229.243871 229.243871 0 512 0c282.756129 0 512 229.243871 512 512 0 282.756129-229.243871 512-512 512-177.019871 0-338.613677-90.607484-432.012387-237.105548z" fill="#222222" p-id="2644"></path></svg>