<?xml version="1.0" standalone="no"?><!DOCTYPE svg PUBLIC "-//W3C//DTD SVG 1.1//EN" "http://www.w3.org/Graphics/SVG/1.1/DTD/svg11.dtd"><svg t="1608105203328" class="icon" viewBox="0 0 1024 1024" version="1.1" xmlns="http://www.w3.org/2000/svg" p-id="9996" xmlns:xlink="http://www.w3.org/1999/xlink" width="200" height="200"><defs><style type="text/css"></style></defs><path d="M582.8 431.6c-4.8-14.4-13.9-27.2-25.9-36.4-13.3-10.2-29.2-15.7-46.1-15.7-33 0-62.4 21.3-72.7 52.1-14.2 4.9-26.9 14.1-36 26.1-10.1 13.3-15.4 29.2-15.4 46 0 42.1 34.2 76.3 76.3 76.3 19 0 37.2-7.1 51.3-19.9 0.1-0.1 0.2-0.1 0.2-0.2l40.3-39.8c6.5-6.4 10.1-14.8 10.1-23.8s-3.6-17.5-10.1-23.8c-6.5-6.4-15.1-9.9-24.2-9.9-7.2 0-14.1 2.2-19.8 6.3-5.8-4.1-12.7-6.3-20.1-6.3-9.3 0-18 3.5-24.5 9.9s-10.1 14.8-10.1 23.8 3.6 17.5 10.1 23.8c0 0 24.7 24.6 35.3 35.1-11.1 8.3-24.5 12.7-38.3 12.7-35.5 0-64.3-28.8-64.3-64.3 0-28.2 18.9-53.6 45.9-61.6 2-0.6 3.5-2.1 4-4.1 7.9-27.4 33.4-46.5 62.2-46.5 28.7 0 53.4 18.7 61.4 46.5 0.6 2 2.1 3.5 4 4.1 27 8.1 45.9 33.4 45.9 61.6 0 35.5-28.8 64.3-64.3 64.3-9.1 0-17.9-1.9-26.1-5.5-3-1.3-6.6 0-7.9 3-1.3 3 0 6.6 3 7.9 9.8 4.3 20.2 6.5 30.9 6.5 42.1 0 76.3-34.2 76.3-76.3 0-16.8-5.3-32.7-15.4-46-9.2-11.8-21.9-21-36-25.9z m-108.4 80c-4.2-4.1-6.5-9.5-6.5-15.3 0-5.8 2.3-11.2 6.5-15.3 4.3-4.2 10-6.5 16.2-6.5 6.1 0 11.7 2.2 15.9 6.3 0.1 0.1 0.2 0.2 0.3 0.2 1.2 1 2.6 1.5 4.1 1.4 1.7 0 3.2-0.8 4.3-2 4.2-3.9 9.6-6.1 15.4-6.1 6 0 11.6 2.3 15.9 6.5 4.2 4.1 6.5 9.5 6.5 15.3 0 5.7-2.3 11.1-6.5 15.2 0 0-0.1 0-0.1 0.1L510.3 547l-35.9-35.4z" fill="#231815" p-id="9997"></path><path d="M557.9 593.8c-12.7 0-25.1-2.6-36.6-7.7-3.5-1.6-6.4-4.1-8.5-7.2-14.3 9.6-31.7 15-49.8 15-49.7 0-90.1-40.4-90.1-90.1 0-19.8 6.3-38.6 18.2-54.3 9.4-12.4 22-22.3 36.2-28.4 14-33.3 46.7-55.3 83.5-55.3 19.9 0 38.8 6.4 54.5 18.5 12.3 9.5 22.1 22.3 28.2 36.7 14.2 6.2 26.9 16.1 36.2 28.4 11.9 15.8 18.2 34.6 18.2 54.3 0.1 49.7-40.3 90.1-90 90.1z m-15.4-42c4.9 1.6 10.1 2.4 15.4 2.4 27.8 0 50.5-22.6 50.5-50.5 0-22.2-14.8-42-36-48.4-6.5-1.9-11.5-7-13.4-13.5-6.3-21.9-25.6-36.5-48.1-36.5-22.6 0-42.7 15-48.9 36.5-1.9 6.6-6.9 11.6-13.4 13.5-21.2 6.3-36 26.2-36 48.3 0 27.8 22.6 50.5 50.5 50.5 5.2 0 10.4-0.8 15.3-2.4l-22-21.9c-9.1-8.9-14.2-20.8-14.2-33.6s5.1-24.8 14.3-33.7c14.2-13.7 36.6-17.5 54.2-9.5 17.5-8 39.7-4.2 53.7 9.6 9.2 9 14.3 20.9 14.3 33.7s-5.1 24.8-14.3 33.8l-21.9 21.7z m-51.9-63.3c-2.6 0-4.8 0.9-6.5 2.5-1.5 1.5-2.3 3.3-2.3 5.3s0.8 3.9 2.3 5.4l0.1 0.1 26.1 26 26.3-26c1.6-1.6 2.4-3.4 2.4-5.4 0-2-0.8-3.9-2.3-5.3-3.3-3.2-8.8-3.4-12.1-0.2-2.9 3.2-8 5.6-13.4 5.7-5.3-0.1-9.8-1.5-13.6-4.9-0.5-0.4-1.2-1.1-1.7-1.7-0.6-0.7-2.8-1.5-5.3-1.5z" fill="#53524C" p-id="9998"></path><path d="M395.6 883c-33.6 0-57.4-6.9-58.9-7.3-7.3-2.2-13.3-7.2-16.8-13.9-74.6-145.8-75.7-277-54.9-376.6h-0.7c-67.6 0-109.7-73.1-111.5-76.2-4.1-7.2-4.7-15.8-1.7-23.6 9-23.4 76.1-124.9 97.9-157.7 44.4-85.4 181.1-92 186.9-92.2 3.7-0.1 7.3 0.4 10.8 1.7 28.6 10.6 53.7 9.6 54 9.5 15.2-0.5 28.4 10.8 29.2 26 0.9 15.3-10.8 28.3-26 29.2-1.4 0.1-33.3 1.7-70.7-10.8-34.3 2.6-112.7 17.5-135.4 63-0.5 1-1.1 2-1.7 3-34.5 51.8-72 110.2-87 136.3 9.4 12.3 26.1 30.6 45.8 35.4 20.4-27.1 41.5-56.2 57.7-79.9 16.5-32.8 30.5-52.2 32.5-54.9 8-10.9 22.7-14.3 34.7-8.3 12 6.1 17.9 19.9 14 32.8-3.7 12.2-17.2 34.5-33.6 58.8-39.5 80.2-93.7 247.8 3.3 447.7 11.4 2 30.6 4.1 52.7 1.6-1.6-34.9 0.8-94.7 31.6-129.2 16.1-18 37.5-27.3 63.4-26.5 15.3 0.4 27.3 13.1 26.9 28.4-0.4 15.3-12.5 27.3-28.4 26.9-8.9-0.3-15.3 2.2-20.6 8.1-19.5 21.7-20 79.7-15.8 111.1 1.9 13.9-6.9 27.1-20.5 30.6-20.5 5.2-40.1 7-57.2 7z" fill="#53524C" p-id="9999"></path><path d="M618.5 883c-17.1 0-36.7-1.8-57.1-7.1-13.5-3.5-22.3-16.4-20.6-30.2 3.8-31.5 2.9-89.7-15.8-111.8-4.4-5.2-9.1-7.5-15.8-7.8-15.3-0.7-27.1-13.6-26.4-28.9 0.7-15.3 13.3-26.5 28.9-26.4 22.1 1 41.3 10.5 55.6 27.4 29 34.3 31.7 93.7 30.4 128.3 22.2 2.6 41.5 0.4 53-1.5 97.3-200.7 40.4-371.4 1.3-450.7-15.5-23.2-28-44.2-31.6-55.8-3.9-12.9 2-26.7 14-32.8 12-6.1 26.7-2.6 34.7 8.3 2 2.7 16 22.1 32.5 54.9 16.2 23.7 37.3 52.8 57.7 79.9 19.7-4.8 36.4-23.1 45.8-35.4-14.9-26.1-52.5-84.5-87-136.3-0.6-1-1.2-1.9-1.7-3-22.7-45.4-100.8-60.4-135.3-63-37.8 13-78.6 10.9-80.4 10.8-15.3-0.9-27-13.9-26.1-29.2 0.9-15.2 14.2-26.7 29.1-26.1 0.4 0 35.2 1.7 63.1-9.3 3.6-1.4 7.4-2 11.3-1.9 5.8 0.2 142.5 6.8 186.9 92.2 22 32.9 89 134.4 98 157.8 3 7.7 2.3 16.4-1.7 23.6-1.8 3.2-43.9 76.2-111.5 76.2h-0.7c20.8 99.6 19.7 230.8-54.9 376.6-3.4 6.7-9.5 11.8-16.8 13.9-1.5 0.4-25.3 7.3-58.9 7.3z" fill="#53524C" p-id="10000"></path></svg>