<?xml version="1.0" standalone="no"?><!DOCTYPE svg PUBLIC "-//W3C//DTD SVG 1.1//EN" "http://www.w3.org/Graphics/SVG/1.1/DTD/svg11.dtd"><svg t="1609922648957" class="icon" viewBox="0 0 1024 1024" version="1.1" xmlns="http://www.w3.org/2000/svg" p-id="3441" xmlns:xlink="http://www.w3.org/1999/xlink" width="200" height="200"><defs><style type="text/css"></style></defs><path d="M996.881774 483.206609c0 65.479339-5.88843 130.546488-29.442148 187.42872-24.436984 58.884298-69.483471 106.698348-114.000001 151.155992a472.723143 472.723143 0 0 1-156.337811 101.280993c-56.882232 23.553719-116.708678 51.052686-182.188017 51.052686s-127.896695-21.080579-184.837811-44.693182c-58.884298-24.436984-108.582645-63.830579-153.099174-108.288224a476.020664 476.020664 0 0 1-105.991736-154.159092C47.490241 610.043386 27.116274 548.685948 27.116274 483.206609a490.506201 490.506201 0 0 1 36.979339-186.60434c24.495868-58.884298 66.598141-108.464877 111.055785-153.099174s95.451447-82.732438 154.453514-107.169422A482.380168 482.380168 0 0 1 514.67826 0.002061c65.479339 0 126.071282 17.665289 182.953513 41.51343 58.884298 24.436984 118.592976 51.288223 163.050621 95.745868s68.659091 105.108472 93.096074 164.051654c23.612603 56.941116 43.103306 116.767563 43.103306 181.893596z" fill="#FFD635" p-id="3442"></path><path d="M618.726814 911.23657c-61.710744 0-120.653926-19.902893-174.297522-42.161158-55.645661-23.082645-102.458678-60.179752-144.384298-102.164256a448.933887 448.933887 0 0 1-99.691116-145.385332c-22.258265-53.643595-41.219008-111.52686-41.219009-173.296488a463.066118 463.066118 0 0 1 34.623968-176.005166c23.082645-55.645661 63.006199-102.282025 104.755165-144.207646S388.548094 49.877061 444.134871 26.794416A446.284093 446.284093 0 0 1 533.050161 0.53202C526.985078 0.002061 520.861111 0.002061 514.67826 0.002061a482.380168 482.380168 0 0 0-185.073348 36.331612c-58.884298 24.495868-109.995868 62.88843-154.453514 107.346075s-86.559918 94.214877-111.055785 153.099174A490.506201 490.506201 0 0 0 27.116274 483.206609c0 65.479339 20.373967 126.836777 43.98657 183.777893a475.431821 475.431821 0 0 0 105.991736 154.159092c44.457645 44.457645 94.214877 83.85124 153.099175 108.288224 56.941116 23.553719 119.417356 44.693182 184.83781 44.693182s125.305786-27.440083 182.188018-51.052686a492.626036 492.626036 0 0 0 128.014463-75.666323c-11.188017 5.535124-22.61157 10.834711-34.329545 15.722107-53.996901 22.19938-110.172521 48.108471-172.177687 48.108472z" fill="#F7B523" p-id="3443"></path><path d="M437.127639 125.720037s3.474174-2.708678 9.774794-6.948347a228.471076 228.471076 0 0 1 27.26343-15.839876 224.231406 224.231406 0 0 1 42.161157-16.016529A206.919423 206.919423 0 0 1 568.851814 79.613632h13.366735c4.180785 0 8.950413 0.294421 13.248967 0.588843s8.655992 0.942149 12.895661 1.530991 8.36157 1.472107 12.424587 2.355372a160.400827 160.400827 0 0 1 22.905992 7.125 133.31405 133.31405 0 0 1 19.490703 9.421488 117.768596 117.768596 0 0 1 26.144628 20.256198 70.661157 70.661157 0 0 1 6.30062 7.360538 26.262397 26.262397 0 0 1 2.06095 2.88533s-4.946281 0.883264-12.954545 1.472108c-3.945248 0.294421-8.655992 0.41219-13.955579 0.647727s-11.070248 0-17.253099 0-12.777893-0.588843-19.667356-1.059917-14.014463-1.354339-21.375-2.237604l-11.129132-1.530992-11.423554-1.825413c-3.886364-0.647727-7.360537-1.354339-11.776859-1.943182l-5.88843-1.177686a52.524794 52.524794 0 0 0-5.535124-0.706611 413.603308 413.603308 0 0 0-87.089877 0l-30.56095 2.590909-8.77376 0.647727z" fill="#FFEF57" p-id="3444"></path><path d="M237.392101 927.724173l162.520662 96.275827c49.521694-324.511365 19.902893-620.228309 19.902893-620.228309l-167.820249 62.299587s27.852273 199.794422-14.603306 461.652895zM745.504707 967.529958l155.807852-97.924587c33.092975-200.206613 11.77686-403.534093 11.77686-403.534093L745.504707 403.771691s43.397727 265.509299 0 563.758267z" fill="#5FA5E1" p-id="3445"></path><path d="M685.737145 644.255163H504.667929a123.185951 123.185951 0 0 0-11.129132 51.347108c0 62.535124 45.517562 113.293389 101.693182 113.293389s101.634298-50.758265 101.634298-113.293389a123.185951 123.185951 0 0 0-11.129132-51.347108z" fill="#943436" p-id="3446"></path><path d="M595.231979 582.367766c-39.570248 0-73.723141 25.202479-90.56405 61.887397h181.069216c-16.782025-36.684918-50.993802-61.887397-90.505166-61.887397z" fill="#FFFFFF" p-id="3447"></path><path d="M230.620407 372.739666l1.059917-1.943182 3.297521-5.711777c2.885331-4.65186 7.066116-11.129132 12.542355-18.548553s11.77686-15.89876 19.667356-24.672521c3.945248-4.239669 7.772727-8.832645 12.130165-13.072314s8.597107-8.832645 13.248967-12.954546 9.303719-8.302686 14.073347-12.247934 9.598141-7.53719 14.308885-11.070248 9.539256-6.653926 14.073347-9.657025l6.653926-4.298553 6.477272-3.650827c4.180785-2.296488 8.008265-4.534091 11.482438-6.30062l9.009298-4.180785 8.008265-3.709711a20.668389 20.668389 0 0 1 17.665289 37.39153 14.073347 14.073347 0 0 1-2.178719 0.883264l-1.23657 0.41219-7.125 2.414256-8.243802 2.767562c-3.120868 1.177686-6.536157 2.708678-10.363637 4.298554l-5.888429 2.473141-5.88843 3.120867c-4.298554 2.119835-8.891529 4.239669-13.366736 7.007232s-9.303719 5.240703-13.83781 8.36157-9.362603 5.88843-13.896694 9.539256-9.480372 6.771694-13.83781 10.363637-8.420455 7.183884-12.247934 10.658058c-7.890496 7.242769-15.07438 14.308884-20.786157 20.668388s-10.422521 11.77686-13.543389 15.722108c-1.472107 1.943182-2.590909 3.474174-3.415289 4.475206l-1.177686 1.648761a9.657025 9.657025 0 0 1-16.252066-10.422521z" fill="#E59D0E" p-id="3448"></path><path d="M252.230944 459.65289l1.001033-2.885331a88.974174 88.974174 0 0 1 4.416323-9.244835 100.103306 100.103306 0 0 1 22.964876-27.26343 116.17872 116.17872 0 0 1 19.31405-13.307851 142.382232 142.382232 0 0 1 23.553719-10.599173 180.480373 180.480373 0 0 1 26.380165-6.889463 175.65186 175.65186 0 0 1 27.911157-2.532025h6.771694c2.473141 0 5.005165 0 7.242769 0.353306 4.65186 0 9.303719 0.765496 13.83781 1.472107a174.533059 174.533059 0 0 1 26.43905 5.88843 137.96591 137.96591 0 0 1 43.515496 22.493802 90.210744 90.210744 0 0 1 23.553719 27.498967 70.131199 70.131199 0 0 1 4.298554 9.59814l1.118801 3.533058a13.83781 13.83781 0 0 1-23.553719 13.366736l-1.413223-1.589876-1.530992-1.825413c-1.001033-1.118802-2.590909-2.767562-4.592975-4.710744a85.676653 85.676653 0 0 0-19.608471-13.42562 162.285125 162.285125 0 0 0-15.427686-6.536157 178.125001 178.125001 0 0 0-18.48967-5.06405 170.764464 170.764464 0 0 0-20.491735-3.415289c-3.533058-0.353306-7.125-0.706612-10.716942-0.883265h-11.011364a177.300621 177.300621 0 0 0-41.690083 5.06405 146.73967 146.73967 0 0 0-18.195248 5.88843 131.017563 131.017563 0 0 0-15.192149 7.066116 108.523761 108.523761 0 0 0-11.776859 7.596074 102.635331 102.635331 0 0 0-8.126033 6.948347c-2.178719 2.355372-3.474174 3.356405-4.710744 4.887397l-1.884298 2.355372a14.191116 14.191116 0 0 1-24.378099-13.543389z" fill="#943436" p-id="3449"></path><path d="M925.690658 382.749997l-1.177686-1.648761c-0.82438-1.001033-2.002066-2.532025-3.474173-4.475206-3.061983-3.827479-7.596074-9.421488-13.484504-15.722108s-12.954546-13.484504-20.727273-20.491735c-4.063017-3.474174-8.067149-7.301653-12.542356-10.716943s-8.714876-7.066116-13.366735-10.304752-9.244835-6.536157-13.896694-9.539256-9.362603-5.88843-13.896695-8.36157-9.009298-4.887397-13.307851-7.007232l-6.182851-3.120867-5.88843-2.473141c-3.827479-1.589876-7.301653-3.120868-10.422521-4.298554l-8.184917-2.767562-7.125-2.414256-1.236571-0.41219a20.668389 20.668389 0 1 1 13.248967-39.158058l2.119835 0.883264 8.008265 3.709711 9.127066 4.357438c3.474174 1.766529 7.242769 4.004132 11.423554 6.30062l6.477272 3.650827 6.653926 4.298553c4.592975 3.003099 9.421488 5.88843 14.073347 9.657025s9.715909 7.066116 14.367769 11.070248 9.539256 7.94938 14.014463 12.247934 9.009298 8.538223 13.307851 12.954546 8.184917 8.832645 12.130165 13.072314c7.53719 8.77376 14.308884 17.135331 19.667356 24.672521s9.657025 13.896694 12.483471 18.548553c1.472107 2.355372 2.590909 4.239669 3.356405 5.535124l1.059917 1.943182a9.657025 9.657025 0 0 1-16.252066 10.422521z" fill="#E59D0E" p-id="3450"></path><path d="M896.130741 473.196278l-1.943182-2.355372c-1.177686-1.530992-2.473141-2.532025-4.651859-4.887396a102.635331 102.635331 0 0 0-8.126034-6.653926 108.523761 108.523761 0 0 0-11.776859-7.596074 131.017563 131.017563 0 0 0-15.192149-7.066116 149.978307 149.978307 0 0 0-18.195248-5.88843 177.653927 177.653927 0 0 0-41.690083-5.06405h-11.011364c-3.591942 0-7.183884 0.529959-10.716942 0.883265a173.944216 173.944216 0 0 0-20.55062 3.415289 186.60434 186.60434 0 0 0-18.489669 5.06405 160.871902 160.871902 0 0 0-15.368802 6.536157 86.324381 86.324381 0 0 0-19.667355 13.42562c-2.002066 1.943182-3.533058 3.591942-4.534091 4.710744l-1.530992 1.825413-1.413223 1.589876a13.896694 13.896694 0 0 1-23.553719-13.366736l1.177686-3.533058a70.131199 70.131199 0 0 1 4.298553-9.59814 89.386364 89.386364 0 0 1 23.55372-27.498967 137.377067 137.377067 0 0 1 43.515496-22.493802 172.884298 172.884298 0 0 1 26.439049-5.88843c4.534091-0.706612 9.127066-1.177686 13.778926-1.472107 2.296488 0 4.828512 0 7.301653-0.353306h6.771694a176.299588 176.299588 0 0 1 27.911157 2.532025 179.655993 179.655993 0 0 1 26.321281 6.889463 138.142563 138.142563 0 0 1 23.55372 10.599173 111.52686 111.52686 0 0 1 19.314049 13.307851 98.160124 98.160124 0 0 1 22.964876 27.26343 80.671488 80.671488 0 0 1 4.475207 9.303719l1.001033 2.885331a14.191116 14.191116 0 0 1-24.378099 13.543389z" fill="#943436" p-id="3451"></path></svg>