<?xml version="1.0" standalone="no"?><!DOCTYPE svg PUBLIC "-//W3C//DTD SVG 1.1//EN" "http://www.w3.org/Graphics/SVG/1.1/DTD/svg11.dtd"><svg t="1608105248768" class="icon" viewBox="0 0 1024 1024" version="1.1" xmlns="http://www.w3.org/2000/svg" p-id="11010" xmlns:xlink="http://www.w3.org/1999/xlink" width="200" height="200"><defs><style type="text/css"></style></defs><path d="M45.056 210.944l0 152.576 659.456 174.08 0-173.056zM769.024 357.376l0 410.624q12.288 2.048 27.648 2.048 13.312 0 30.72-2.56t37.888-10.752q23.552-9.216 37.376-25.6t20.992-31.744q8.192-18.432 9.216-37.888l29.696-438.272q-7.168 15.36-18.432 29.696-9.216 13.312-22.016 27.648t-30.208 25.6q-20.48 14.336-42.496 24.064t-39.424 15.872q-20.48 7.168-40.96 11.264zM54.272 162.816l900.096-78.848q-3.072 28.672-13.312 56.32-8.192 23.552-23.552 50.176t-40.96 47.104q-33.792 27.648-62.976 41.472t-51.712 19.968q-26.624 7.168-48.128 7.168zM594.944 161.792q-11.264 0-19.456 8.192t-8.192 19.456 8.192 19.456 19.456 8.192 19.456-8.192 8.192-19.456-8.192-19.456-19.456-8.192zM704.512 210.944q-12.288 0-20.48 8.704t-8.192 19.968q0 12.288 8.192 20.48t20.48 8.192q11.264 0 19.968-8.192t8.704-20.48q0-11.264-8.704-19.968t-19.968-8.704zM741.376 135.168q-11.264 0-19.456 8.192t-8.192 19.456 8.192 19.456 19.456 8.192 19.456-8.192 8.192-19.456-8.192-19.456-19.456-8.192zM838.656 141.312q-11.264 0-18.944 7.68t-7.68 18.944 7.68 19.456 18.944 8.192 19.456-8.192 8.192-19.456-8.192-18.944-19.456-7.68zM472.064 161.792q-11.264 0-19.456 8.192t-8.192 19.456 8.192 19.456 19.456 8.192 19.456-8.192 8.192-19.456-8.192-19.456-19.456-8.192zM704.512 601.088l-659.456-183.296 0 80.896q0 35.84 13.312 55.296t49.152 31.744q4.096 2.048 32.256 10.24t70.656 21.504 95.744 29.696 108.544 32.768q129.024 39.936 289.792 88.064l0-166.912z" p-id="11011"></path></svg>