<?xml version="1.0" standalone="no"?><!DOCTYPE svg PUBLIC "-//W3C//DTD SVG 1.1//EN" "http://www.w3.org/Graphics/SVG/1.1/DTD/svg11.dtd"><svg t="1614002039348" class="icon" viewBox="0 0 1152 1024" version="1.1" xmlns="http://www.w3.org/2000/svg" p-id="3942" xmlns:xlink="http://www.w3.org/1999/xlink" width="225" height="200"><defs><style type="text/css"></style></defs><path d="M1030.848 250.496L889.152 108.8c-4-4-9.248-5.952-14.528-5.952s-10.464 1.952-14.496 5.952L490.688 478.336v170.656h170.656L1030.848 279.456a20.512 20.512 0 0 0 0-28.96zM541.856 597.76v-83.264l83.264 83.264h-83.264z m129.024-26.624l-102.4-102.4 236.864-236.864 102.4 102.4-236.864 236.864z m273.056-273.056l-102.4-102.4 33.088-33.088 102.4 102.4-33.088 33.088z m-478.848 85.952h-307.2v51.2h307.2v-51.2zM704 230.432V110.944c0-18.848-15.264-34.144-34.144-34.144H89.632c-18.848 0-34.144 15.296-34.144 34.144V742.4c0 18.848 15.296 34.144 34.144 34.144h580.224c18.848 0 34.144-15.264 34.144-34.144v-51.168h-51.2v34.144l-546.112-0.032V128.032H652.8v102.432H704z m-119.52 0H157.856V281.6h426.624V230.432zM157.888 588.8h307.2v-51.168h-307.2V588.8z m682.656 136.544a34.144 34.144 0 1 1-68.32 0 34.144 34.144 0 0 1 68.32 0z m136.544 0a34.144 34.144 0 1 1-68.32 0 34.144 34.144 0 0 1 68.32 0z m119.456 0a34.144 34.144 0 1 1-68.32 0 34.144 34.144 0 0 1 68.32 0z" p-id="3943"></path></svg>