<?xml version="1.0" standalone="no"?><!DOCTYPE svg PUBLIC "-//W3C//DTD SVG 1.1//EN" "http://www.w3.org/Graphics/SVG/1.1/DTD/svg11.dtd"><svg t="1608189755817" class="icon" viewBox="0 0 1024 1024" version="1.1" xmlns="http://www.w3.org/2000/svg" p-id="4490" xmlns:xlink="http://www.w3.org/1999/xlink" width="200" height="200"><defs><style type="text/css"></style></defs><path d="M576 576c-12.8 0-21.333333 8.533333-21.333333 21.333333s8.533333 21.333333 21.333333 21.333333 21.333333-8.533333 21.333333-21.333333S588.8 576 576 576zM448 576c-12.8 0-21.333333 8.533333-21.333333 21.333333s8.533333 21.333333 21.333333 21.333333 21.333333-8.533333 21.333333-21.333333S460.8 576 448 576zM341.333333 682.666667l-42.666667 0 0-42.666667c0-12.8-8.533333-21.333333-21.333333-21.333333s-21.333333 8.533333-21.333333 21.333333l0 42.666667-42.666667 0c-12.8 0-21.333333 8.533333-21.333333 21.333333s8.533333 21.333333 21.333333 21.333333l42.666667 0 0 42.666667c0 12.8 8.533333 21.333333 21.333333 21.333333s21.333333-8.533333 21.333333-21.333333l0-42.666667 42.666667 0c12.8 0 21.333333-8.533333 21.333333-21.333333S354.133333 682.666667 341.333333 682.666667zM746.666667 469.333333l-211.2 0c-21.333333-38.4-4.266667-57.6 27.733333-89.6 25.6-25.6 57.6-55.466667 57.6-102.4 0-119.466667-134.4-187.733333-140.8-189.866667-10.666667-4.266667-23.466667 0-27.733333 8.533333-4.266667 10.666667 0 23.466667 8.533333 27.733333 2.133333 0 115.2 59.733333 115.2 151.466667 0 29.866667-21.333333 51.2-44.8 72.533333-29.866667 27.733333-64 64-42.666667 119.466667L277.333333 467.2C147.2 469.333333 42.666667 573.866667 42.666667 704c0 130.133333 104.533333 234.666667 234.666667 234.666667 72.533333 0 138.666667-34.133333 181.333333-85.333333l106.666667 0c42.666667 51.2 108.8 85.333333 181.333333 85.333333 130.133333 0 234.666667-104.533333 234.666667-234.666667C981.333333 573.866667 876.8 469.333333 746.666667 469.333333zM746.666667 896c-66.133333 0-125.866667-34.133333-160-85.333333l-149.333333 0c-34.133333 51.2-93.866667 85.333333-160 85.333333-106.666667 0-192-85.333333-192-192s85.333333-192 192-192l469.333333 0c106.666667 0 192 85.333333 192 192S853.333333 896 746.666667 896zM704 704c-23.466667 0-42.666667 19.2-42.666667 42.666667 0 23.466667 19.2 42.666667 42.666667 42.666667s42.666667-19.2 42.666667-42.666667C746.666667 723.2 727.466667 704 704 704zM789.333333 618.666667c-23.466667 0-42.666667 19.2-42.666667 42.666667 0 23.466667 19.2 42.666667 42.666667 42.666667s42.666667-19.2 42.666667-42.666667C832 637.866667 812.8 618.666667 789.333333 618.666667z" p-id="4491"></path></svg>