<?xml version="1.0" standalone="no"?><!DOCTYPE svg PUBLIC "-//W3C//DTD SVG 1.1//EN" "http://www.w3.org/Graphics/SVG/1.1/DTD/svg11.dtd"><svg t="1608105307404" class="icon" viewBox="0 0 1024 1024" version="1.1" xmlns="http://www.w3.org/2000/svg" p-id="11933" xmlns:xlink="http://www.w3.org/1999/xlink" width="200" height="200"><defs><style type="text/css"></style></defs><path d="M726.344 296.12V171.561c0-20.685-4.977-25.723 14.95-25.723h74.26a18.698 18.698 0 0 1 21.935 14.623 18.74 18.74 0 0 1-0.492 9.072V379.31c-0.512 9.585 3.482 18.678 10.957 24.72 34.406 28.241 67.789 57.487 101.683 86.732 16.446 14.131 16.937 21.177 2.99 38.318-8.479 10.097-16.957 20.685-25.436 31.273-4.977 9.585-15.933 13.107-25.395 8.07a22.426 22.426 0 0 1-6.492-5.53L535.47 251.74c-3.973-3.522-8.458-7.065-13.455-11.1a9823.273 9823.273 0 0 1-80.732 69.1L149.238 561.869a18.924 18.924 0 0 1-26.42 4.546 26.46 26.46 0 0 1-5.98-7.065c-8.97-11.1-18.432-22.2-27.402-33.792a19.476 19.476 0 0 1-3.481-27.239 14.684 14.684 0 0 1 5.96-5.038 22433.792 22433.792 0 0 1 163.47-141.189c72.766-62.525 145.02-125.071 217.785-187.597a66.99 66.99 0 0 1 95.191-2.519l2.499 2.52c38.87 33.791 78.233 67.583 117.125 101.375 1.986 1.495 3.973 3.01 7.475 6.042l30.884 24.207zM624.68 898.232V691.958H421.356V898.19c-4.506 0 3.481 0 0 0h-174.94c-37.377 0-25.908 5.55-27.915-34.283-0.491-88.248-0.491-186.081 0-274.33 0-4.526-5.98-4.034-1.986-7.045 59.31-50.934 118.62-101.867 178.421-152.31 39.363-33.792 79.237-67.584 118.6-101.355 2.99-2.52 6-5.038 9.974-8.07a7461.478 7461.478 0 0 0 70.779 60.007c77.25 66.069 156.467 143.217 234.23 209.285 8.478 7.066 9.973 3.031-0.492 19.17-2.007 84.705 0 171.95 0.491 255.651a99.041 99.041 0 0 0 0 34.304 76.861 76.861 0 0 1-33.894 0c-69.775-1.024-100.66-1.024-169.943-1.024 11.96 0 2.007 0.512 0 0z" p-id="11934"></path></svg>