<?xml version="1.0" standalone="no"?><!DOCTYPE svg PUBLIC "-//W3C//DTD SVG 1.1//EN" "http://www.w3.org/Graphics/SVG/1.1/DTD/svg11.dtd"><svg t="1608031394493" class="icon" viewBox="0 0 1024 1024" version="1.1" xmlns="http://www.w3.org/2000/svg" p-id="3231" xmlns:xlink="http://www.w3.org/1999/xlink" width="200" height="200"><defs><style type="text/css"></style></defs><path d="M317.155556 843.377778c-24.177778-5.688889-46.933333-19.911111-65.422223-39.822222l-156.444444-179.2c-22.755556-25.6-34.133333-59.733333-32.711111-93.866667 2.844444-34.133333 18.488889-66.844444 44.088889-89.6L459.377778 132.266667c25.6-22.755556 61.155556-32.711111 95.288889-28.444445l169.244444 25.6c56.888889 8.533333 98.133333 56.888889 99.555556 113.777778l4.266666 170.666667c1.422222 35.555556-14.222222 68.266667-39.822222 91.022222L435.2 814.933333c-34.133333 29.866667-78.222222 38.4-118.044444 28.444445z m-22.755556-78.222222c27.022222 29.866667 72.533333 32.711111 102.4 7.111111l352.711111-308.622223c14.222222-11.377778 21.333333-28.444444 21.333333-46.933333l-4.266666-170.666667c0-29.866667-22.755556-54.044444-51.2-58.311111l-169.244445-25.6c-18.488889-2.844444-35.555556 2.844444-49.777777 14.222223L143.644444 483.555556c-14.222222 12.8-22.755556 31.288889-24.177777 49.777777-1.422222 19.911111 5.688889 38.4 18.488889 52.622223l156.444444 179.2z" p-id="3232"></path><path d="M938.666667 411.022222c7.111111-34.133333 0-69.688889-22.755556-98.133333l-64-75.377778v7.111111L853.333333 327.111111l18.488889 21.333333c11.377778 14.222222 15.644444 32.711111 11.377778 49.777778l-99.555556 457.955556c-4.266667 18.488889-15.644444 35.555556-31.288888 45.511111-17.066667 9.955556-35.555556 14.222222-55.466667 9.955555l-231.822222-51.2c-11.377778-2.844444-21.333333-5.688889-28.444445-9.955555-18.488889 11.377778-38.4 19.911111-59.733333 22.755555 14.222222 18.488889 36.977778 32.711111 68.266667 41.244445 2.844444 1.422222 5.688889 1.422222 8.533333 1.422222L684.088889 967.111111c34.133333 7.111111 68.266667 1.422222 98.133333-17.066667 29.866667-18.488889 49.777778-48.355556 56.888889-81.066666l99.555556-457.955556zM638.577778 356.977778c-29.866667-8.533333-48.355556-38.4-41.244445-69.688889s38.4-48.355556 69.688889-41.244445c29.866667 8.533333 48.355556 38.4 41.244445 69.688889s-39.822222 49.777778-69.688889 41.244445z m21.333333-82.488889c-15.644444-4.266667-31.288889 5.688889-34.133333 19.911111-4.266667 15.644444 5.688889 31.288889 19.911111 34.133333 15.644444 4.266667 31.288889-5.688889 34.133333-19.911111s-5.688889-29.866667-19.911111-34.133333z" fill="#ffc43c" p-id="3233"></path></svg>