<?xml version="1.0" standalone="no"?><!DOCTYPE svg PUBLIC "-//W3C//DTD SVG 1.1//EN" "http://www.w3.org/Graphics/SVG/1.1/DTD/svg11.dtd"><svg t="1606528948215" class="icon" viewBox="0 0 1024 1024" version="1.1" xmlns="http://www.w3.org/2000/svg" p-id="864" xmlns:xlink="http://www.w3.org/1999/xlink" width="200" height="200"><defs><style type="text/css"></style></defs><path d="M56.38263701 492.614487c0 244.53129599 200.372563 442.761056 447.54501199 442.761056 247.171426 0 447.543989-198.22976 447.543989-442.761056 0-1.440815-0.016373-2.87856001-0.029676-4.315282 0.014326-1.436722 0.02967601-2.876514 0.029676-4.317329 0-244.53129599-200.372563-442.761056-447.543989-442.761056-247.172449 0-447.545012 198.22976-447.545012 442.761056 0 1.440815 0.016373 2.879584 0.029676 4.317329C56.39900899 489.735927 56.382637 491.172649 56.38263701 492.614487zM303.971571 447.633017c1.496074-1.497097 3.062755-2.87651401 4.679579-4.160763L548.7853 206.402907c21.351284-21.351284 55.967686-21.351284 77.31897 0s21.350261 55.965639 0 77.317946l-205.89637 202.828498L626.103246 692.876534c21.350261 21.350261 21.350261 55.966663 0 77.317946-21.350261 21.350261-55.966663 21.350261-77.31897 0L308.648081 529.627473c-1.6158-1.286296-3.181459-2.664689-4.676509-4.15974-10.740622-10.740622-16.07307-24.838711-16.006556-38.91838101C287.898501 472.473775 293.230949 458.375685 303.971571 447.633017z" p-id="865"></path></svg>