<?xml version="1.0" standalone="no"?><!DOCTYPE svg PUBLIC "-//W3C//DTD SVG 1.1//EN" "http://www.w3.org/Graphics/SVG/1.1/DTD/svg11.dtd"><svg t="1608031183861" class="icon" viewBox="0 0 1024 1024" version="1.1" xmlns="http://www.w3.org/2000/svg" p-id="2996" xmlns:xlink="http://www.w3.org/1999/xlink" width="200" height="200"><defs><style type="text/css"></style></defs><path d="M170.666667 186.181818c330.984727 101.562182 496.484848 203.931152 496.484848 307.13794C667.151515 596.992 501.651394 701.47103 170.666667 806.787879V186.181818z" fill="#F8D02D" p-id="2997"></path><path d="M804.445091 522.100364a25.615515 25.615515 0 0 0-18.090667-7.431758c-6.826667 0-13.34303 2.684121-18.090666 7.447273l-54.147879 52.79806-158.875152 154.841213a27.368727 27.368727 0 0 0-6.547394 10.627878l-28.315151 93.975273-1.830788 6.268121a25.088 25.088 0 0 0 4.530424 22.062546 26.453333 26.453333 0 0 0 27.973818 9.014303l102.648243-29.540849a22.652121 22.652121 0 0 0 10.860606-6.392242l1.458424-1.396364 21.240243-20.588606 17.423515-17.780364 9.448727-9.200484 39.315394-38.36897 104.882424-102.291394 18.075152-17.780364c4.980364-4.608 7.850667-10.969212 7.959272-17.671757a24.498424 24.498424 0 0 0-7.447272-17.873455L804.460606 522.084848zM645.833697 818.269091L589.575758 834.358303l-45.878303 12.8 4.064969-12.8 26.220606-86.946909 22.155637-22.000485 72.347151 70.593939-22.667636 22.248728z m107.613091-104.727273l-66.715152 65.086061-72.610909-70.842182 136.052364-132.732121 3.273697 3.584 69.213091 67.64606-69.197576 67.258182z m87.303757-85.286788l-72.486787-70.842182 18.090666-17.144242 71.959273 70.206061-17.563152 17.780363zM323.971879 287.030303l47.445333 92.454788 47.460849-92.454788h44.683636l-60.291879 106.775273h40.246303v20.324848h-52.441212v25.584485h52.441212v20.44897h-52.441212v46.033454h-39.315394V460.179394h-52.441212v-20.200727h52.441212V414.409697h-52.037818v-20.588606h39.982545L279.272727 287.030303h44.699152zM254.991515 562.424242h320.325818c13.34303 0 20.014545 7.757576 20.014546 23.272728s-6.671515 23.272727-20.014546 23.272727H254.991515c-13.34303 0-20.014545-7.757576-20.014545-23.272727s6.671515-23.272727 20.014545-23.272728zM231.548121 663.272727h151.00897c13.715394 0 20.588606 7.757576 20.588606 23.272728s-6.873212 23.272727-20.588606 23.272727h-151.00897c-13.730909 0-20.588606-7.757576-20.588606-23.272727s6.857697-23.272727 20.588606-23.272728zM784.135758 286.673455a14.801455 14.801455 0 0 0-9.712485-3.52194 14.801455 14.801455 0 0 0-9.728 3.52194l-96.830061 84.092121-48.345212-41.984a14.801455 14.801455 0 0 0-9.728-3.52194 14.801455 14.801455 0 0 0-9.728 3.52194 10.814061 10.814061 0 0 0 0 16.771879l58.212848 50.563878c1.551515 1.272242 3.428848 2.203152 5.476849 2.730667 3.025455 0.884364 6.299152 0.884364 9.309091 0 1.675636-0.651636 3.196121-1.536 4.530424-2.622061l106.558061-92.547878a11.170909 11.170909 0 0 0 4.111515-8.502303 11.170909 11.170909 0 0 0-4.111515-8.502303z" fill="#333333" p-id="2998"></path><path d="M884.363636 201.138424v255.596606c0 10.317576-8.936727 18.695758-19.952484 18.695758-11.015758 0-19.93697-8.378182-19.93697-18.711273V201.153939c0-6.888727-5.957818-12.458667-13.312-12.458666H192.853333c-7.354182 0-13.312 5.585455-13.312 12.458666v598.450425c0 6.888727 5.957818 12.458667 13.312 12.458666H465.454545c11.015758 0 19.952485 8.378182 19.952485 18.711273 0 10.317576-8.936727 18.695758-19.952485 18.695758H192.837818C163.452121 849.454545 139.636364 827.112727 139.636364 799.588848V201.138424c0-27.539394 23.815758-49.865697 53.201454-49.865697H831.146667c29.385697 0 53.201455 22.341818 53.201454 49.865697z" fill="#333333" p-id="2999"></path></svg>