<?xml version="1.0" standalone="no"?><!DOCTYPE svg PUBLIC "-//W3C//DTD SVG 1.1//EN" "http://www.w3.org/Graphics/SVG/1.1/DTD/svg11.dtd"><svg t="1608031451500" class="icon" viewBox="0 0 1024 1024" version="1.1" xmlns="http://www.w3.org/2000/svg" p-id="6404" xmlns:xlink="http://www.w3.org/1999/xlink" width="200" height="200"><defs><style type="text/css"></style></defs><path d="M490.3 959.6C256.4 959.6 66 769.2 66 535.3s190.3-424.2 424.2-424.2v64C291.6 175.1 130 336.7 130 535.3s161.6 360.2 360.2 360.2 360.2-161.6 360.2-360.2h64c0.1 233.9-190.2 424.3-424.1 424.3z" fill="#FC592D" p-id="6405"></path><path d="M920.2 531H494.4V99.2c0-9.4 3.7-18.2 10.3-24.8 6.6-6.5 15.3-10.7 24.8-10.2 233 1.7 423.8 195.3 425.5 431.5 0.1 9.2-3.6 18.3-10.2 24.8-6.4 6.7-15.4 10.5-24.6 10.5z m-361.7-64.1h331.2c-15.2-178-156.2-321.5-331.2-337.2v337.2z" fill="#FFCE00" p-id="6406"></path></svg>